<svg width="170" height="170" viewBox="0 0 170 170" fill="none" xmlns="http://www.w3.org/2000/svg">
<rect width="170" height="170" fill="#212529"/>
<g clip-path="url(#clip0_0_1)">
<rect width="170" height="170" rx="85" fill="#EB6011"/>
<path d="M63.3494 37.5C72.9719 20.8333 97.0281 20.8333 106.651 37.5L136.962 90C146.584 106.667 134.556 127.5 115.311 127.5H54.6891C35.4441 127.5 23.416 106.667 33.0385 90L63.3494 37.5Z" fill="black"/>
<path d="M84.98 21V81.9655M84.98 81.9655L35 123M84.98 81.9655L137 123" stroke="#EB6011" stroke-width="5" stroke-linejoin="round"/>
<path d="M106 57L118.99 79.5H93.0096L106 57Z" fill="#333741"/>
<path d="M63 57L75.9904 79.5H50.0096L63 57Z" fill="white"/>
<path d="M86 93L98.9904 115.5H73.0096L86 93Z" fill="#EB6011"/>
</g>
<defs>
<clipPath id="clip0_0_1">
<rect width="170" height="170" rx="85" fill="white"/>
</clipPath>
</defs>
</svg>
